<svg width="41" height="41" viewBox="0 0 41 41" fill="none" xmlns="http://www.w3.org/2000/svg">
<path fill-rule="evenodd" clip-rule="evenodd" d="M7.5371 4.3698C10.2517 2.19402 13.5317 0.694569 17.1217 0.126959C17.5962 1.15838 18.6387 1.87445 19.8485 1.87445C21.1073 1.87445 22.185 1.09914 22.6302 0C26.2522 0.401093 29.5896 1.7458 32.3912 3.78282C31.8002 4.91393 31.9798 6.34284 32.93 7.29298C33.9048 8.26785 35.3837 8.43153 36.5278 7.78403C38.6707 10.5338 40.1279 13.844 40.6426 17.458C39.3264 17.7754 38.3485 18.9607 38.3485 20.3744C38.3485 21.7882 39.3264 22.9735 40.6426 23.2909C40.1279 26.9049 38.6707 30.2151 36.5278 32.9649C35.3837 32.3174 33.9048 32.4811 32.93 33.4559C31.9798 34.4061 31.8002 35.835 32.3912 36.9661C29.5896 39.0031 26.2522 40.3478 22.6302 40.7489C22.185 39.6498 21.1073 38.8744 19.8485 38.8744C18.6387 38.8744 17.5962 39.5905 17.1217 40.6219C13.5317 40.0543 10.2517 38.5549 7.53711 36.3791C7.81545 35.3718 7.55876 34.2477 6.76703 33.4559C5.99972 32.6886 4.92017 32.4239 3.93737 32.6616C1.84206 29.8675 0.44363 26.5208 5.22086e-08 22.8793C0.812491 22.3426 1.3485 21.4211 1.3485 20.3744C1.3485 19.3278 0.812491 18.4063 0 17.8696C0.44363 14.2281 1.84206 10.8814 3.93737 8.08727C4.92016 8.32505 5.99971 8.06028 6.76702 7.29297C7.55875 6.50124 7.81544 5.37709 7.5371 4.3698ZM12.5685 9.59445L14.2485 11.2744V18.3864L12.5685 20.0664L14.2485 21.7744V29.1944L12.5685 30.8744H8.1725L6.4925 29.1944V24.9944H9.1805V28.0744L9.7405 28.6344H11.0005L11.5605 28.0744V21.8024L11.0005 21.2424H8.6205V18.8904H11.0005L11.5605 18.3304V12.3944L11.0005 11.8344H9.7125L9.1525 12.3944V15.4744H6.4645V11.2744L8.1445 9.59445H12.5685ZM20.916 15.4744V12.4504L20.356 11.8904H19.124L18.564 12.4504V19.5344L19.572 18.5264H21.98L23.66 20.2064V29.1944L21.98 30.8744H17.556L15.876 29.1944V11.2744L17.556 9.59445H21.924L23.604 11.2744V15.4744H20.916ZM20.972 21.3824L20.412 20.8224H19.124L18.564 21.3824V28.0184L19.124 28.5784H20.412L20.972 28.0184V21.3824ZM31.3036 9.59445L32.9836 11.2744V29.1944L31.3036 30.8744H26.9076L25.2276 29.1944V11.2744L26.9076 9.59445H31.3036ZM30.2956 12.4504L29.7356 11.8904H28.4756L27.9156 12.4504V28.0184L28.4756 28.5784H29.7356L30.2956 28.0184V12.4504Z" fill="#C9FF57"/>
</svg>
