<svg width="13" height="22" viewBox="0 0 13 22" fill="none" xmlns="http://www.w3.org/2000/svg">
<path d="M5.16718 14.4171C5.18161 13.0697 5.33781 12.0866 5.63579 11.468C5.93377 10.8494 6.49788 10.1736 7.32813 9.44072C8.13907 8.72663 8.76135 8.0647 9.19495 7.45492C9.62855 6.84514 9.84408 6.19405 9.84155 5.50166C9.83846 4.65956 9.54533 3.95887 8.96216 3.3996C8.37899 2.84033 7.56441 2.56262 6.51841 2.56645C5.51116 2.57015 4.73735 2.84901 4.19701 3.40304C3.65666 3.95707 3.26168 4.53396 3.01206 5.13371L0.567593 4.10407C0.989692 2.99842 1.70779 2.05543 2.72188 1.2751C3.73598 0.49477 4.99847 0.101834 6.50936 0.0962945C8.44639 0.0891924 9.93981 0.603018 10.9896 1.63777C12.0394 2.67253 12.567 3.91972 12.5723 5.37936C12.5756 6.2776 12.3801 7.09236 11.9857 7.82364C11.5913 8.55491 10.9597 9.32448 10.091 10.1324C9.14505 11.0154 8.5761 11.6911 8.38411 12.1597C8.19212 12.6282 8.08833 13.3771 8.07273 14.4064L5.16718 14.4171ZM6.58757 21.4295C6.02583 21.4315 5.54572 21.2415 5.14722 20.8593C4.74872 20.4772 4.54847 20.0147 4.54649 19.472C4.5445 18.9294 4.74134 18.4655 5.13703 18.0804C5.53271 17.6953 6.01143 17.5017 6.57317 17.4997C7.13491 17.4976 7.61502 17.6877 8.01352 18.0698C8.41202 18.452 8.61227 18.9144 8.61425 19.4571C8.61624 19.9998 8.4194 20.4637 8.02371 20.8488C7.62803 21.2339 7.14931 21.4274 6.58757 21.4295Z" fill="white"/>
</svg>
