<svg width="19" height="17" viewBox="0 0 19 17" fill="none" xmlns="http://www.w3.org/2000/svg">
<path d="M17.9513 2.3196L17.968 6.8922L13.3954 6.90896" stroke="#F3F3F3" stroke-width="1.5" stroke-linecap="round" stroke-linejoin="round"/>
<path d="M1.22978 14.5742L1.21301 10.0016L5.78561 9.98485" stroke="#F3F3F3" stroke-width="1.5" stroke-linecap="round" stroke-linejoin="round"/>
<path d="M3.11188 6.18451C3.49439 5.09084 4.14771 4.11189 5.01089 3.33901C5.87407 2.56612 6.91897 2.02449 8.04809 1.76466C9.17721 1.50483 10.3537 1.53526 11.4679 1.85311C12.5821 2.17097 13.5976 2.76589 14.4197 3.58236L17.968 6.89215M1.21298 10.002L4.76131 13.3118C5.58338 14.1283 6.59888 14.7232 7.71306 15.0411C8.82724 15.3589 10.0038 15.3893 11.1329 15.1295C12.262 14.8697 13.3069 14.3281 14.1701 13.5552C15.0333 12.7823 15.6866 11.8033 16.0691 10.7097" stroke="#F3F3F3" stroke-width="1.5" stroke-linecap="round" stroke-linejoin="round"/>
</svg>
