<svg width="15" height="17" viewBox="0 0 15 17" fill="none" xmlns="http://www.w3.org/2000/svg">
<path d="M14.0535 2.78506L10.1318 2.79944L10.1257 1.11195C10.1251 0.962771 10.0653 0.819915 9.95945 0.714813C9.85357 0.609711 9.71028 0.550973 9.5611 0.55152L5.06113 0.568019C4.91194 0.568566 4.76909 0.628354 4.66399 0.734229C4.55888 0.840104 4.50015 0.983395 4.50069 1.13258L4.50688 2.82007L0.585227 2.83445L0.574563 4.24074L1.73471 4.23649L2.48147 15.2729C2.50039 15.5583 2.62732 15.8258 2.83643 16.0209C3.04554 16.2161 3.32114 16.3243 3.60717 16.3235L11.1306 16.2959C11.4164 16.2948 11.6911 16.1849 11.8989 15.9886C12.1067 15.7922 12.232 15.5242 12.2492 15.2388L12.9143 4.1955L14.0745 4.19125L14.0535 2.78506ZM4.54813 14.07L4.19873 5.07121L5.35887 5.06696L5.70828 14.0657L4.54813 14.07ZM7.92311 14.0576L6.79811 14.0617L6.76511 5.0618L7.89011 5.05768L7.92311 14.0576ZM8.7256 2.8046L5.91312 2.81491L5.90951 1.83054C5.90937 1.79325 5.92406 1.75742 5.95033 1.73095C5.97661 1.70449 6.01232 1.68954 6.04962 1.6894L8.58085 1.68012C8.61815 1.67999 8.65397 1.69467 8.68044 1.72094C8.70691 1.74722 8.72186 1.78293 8.72199 1.82023L8.7256 2.8046ZM10.1731 14.0494L9.01294 14.0536L9.29635 5.05252L10.4565 5.04827L10.1731 14.0494Z" fill="url(#paint0_linear_1672_348)"/>
<defs>
<linearGradient id="paint0_linear_1672_348" x1="7.31111" y1="0.55977" x2="7.36886" y2="16.3097" gradientUnits="userSpaceOnUse">
<stop stop-color="#B74534"/>
<stop offset="1" stop-color="#C95D4D"/>
</linearGradient>
</defs>
</svg>
